<svg width="108.000000" height="108.000000" viewBox="0 0 108 108" fill="none" xmlns="http://www.w3.org/2000/svg" xmlns:xlink="http://www.w3.org/1999/xlink">
	<desc>
			Created with Pixso.
	</desc>
	<defs>
		<clipPath id="clip4_63">
			<rect id="Loading" width="108.000000" height="108.000000" fill="white" fill-opacity="0"/>
		</clipPath>
		<radialGradient id="paint_angular_4_64_0" cx="0.000000" cy="0.000000" r="1.000000" gradientUnits="userSpaceOnUse" gradientTransform="translate(54 54) rotate(0) scale(26.25 26.25)">
			<stop stop-color="#FFFFFF" stop-opacity="0.000000"/>
			<stop offset="1.000000" stop-color="#512DE4"/>
		</radialGradient>
	</defs>
	<g clip-path="url(#clip4_63)">
		<path id="Ellipse 4" d="M98.7779 49.5073C97.7235 38.8967 92.9746 29.3638 85.8381 22.2154C77.0869 13.4316 65.5859 9.03192 54.078 9.01202C41.679 8.97791 30.431 13.9892 22.2724 22.1051C13.473 30.8406 9.0527 42.3336 9.01224 53.8414C8.95591 66.2405 13.9471 77.4973 22.0484 85.6705C30.7681 94.4855 42.2533 98.9263 53.761 98.9874C66.1599 99.0659 77.4257 94.0949 85.6133 86.0082C93.2925 78.4392 97.6675 68.7729 98.7395 58.8149C99.0055 56.3434 96.9825 54.3076 94.4968 54.2898C92.0128 54.272 90.0143 56.2791 89.6894 58.7419C88.6181 66.8647 84.8357 74.1312 79.2878 79.6093C72.2368 86.5861 63.0111 90.0399 53.8049 89.9899C43.8857 89.9462 34.9162 85.8729 28.436 79.3336C21.4466 72.295 17.9763 63.0755 18.0098 53.8693C18.0357 43.95 22.093 34.9733 28.6207 28.4813C35.6467 21.4794 44.86 17.9926 54.0663 18.0096C63.9856 18.0178 72.9696 22.059 79.4732 28.5751C85.3463 34.4474 88.7579 41.8574 89.718 49.5161C90.0269 51.9804 92.012 54 94.4956 54L94.5 54C96.9853 54 99.0237 51.9804 98.7779 49.5073Z" fill="url(#paint_angular_4_64_0)" fill-opacity="1.000000" fill-rule="evenodd"/>
	</g>
</svg>
